<svg width="29" height="29" viewBox="0 0 29 29" fill="none" xmlns="http://www.w3.org/2000/svg">
<path fill-rule="evenodd" clip-rule="evenodd" d="M28.6289 14.3232C28.6289 22.0552 22.3608 28.3232 14.6289 28.3232C6.89692 28.3232 0.628906 22.0552 0.628906 14.3232C0.628906 6.59125 6.89692 0.323242 14.6289 0.323242C22.3608 0.323242 28.6289 6.59125 28.6289 14.3232ZM20.2713 10.0808C20.6814 10.4908 20.6814 11.1557 20.2713 11.5657L13.2713 18.5657C12.8613 18.9757 12.1965 18.9757 11.7864 18.5657L8.98644 15.7657C8.5764 15.3556 8.5764 14.6909 8.98644 14.2808C9.39649 13.8708 10.0613 13.8708 10.4714 14.2808L12.5289 16.3383L15.6576 13.2095L18.7865 10.0808C19.1965 9.67073 19.8613 9.67073 20.2713 10.0808Z" fill="#06C270"/>
</svg>
