<svg width="14" height="14" viewBox="0 0 14 14" fill="none" xmlns="http://www.w3.org/2000/svg">
<path d="M2.33464 12.25C2.0138 12.25 1.73925 12.1359 1.51097 11.9076C1.28269 11.6793 1.16836 11.4046 1.16797 11.0833V2.91667C1.16797 2.59583 1.2823 2.32128 1.51097 2.093C1.73964 1.86472 2.01419 1.75039 2.33464 1.75H11.668C11.9888 1.75 12.2636 1.86433 12.4922 2.093C12.7209 2.32167 12.835 2.59622 12.8346 2.91667V11.0833C12.8346 11.4042 12.7205 11.6789 12.4922 11.9076C12.2639 12.1362 11.9892 12.2504 11.668 12.25H2.33464ZM2.33464 11.0833H11.668V2.91667H2.33464V11.0833ZM5.2513 9.91667C5.41658 9.91667 5.55522 9.86067 5.66722 9.74867C5.77922 9.63667 5.83502 9.49822 5.83464 9.33333C5.83425 9.16844 5.77825 9.03 5.66664 8.918C5.55502 8.806 5.41658 8.75 5.2513 8.75H3.5013C3.33602 8.75 3.19758 8.806 3.08597 8.918C2.97436 9.03 2.91836 9.16844 2.91797 9.33333C2.91758 9.49822 2.97358 9.63686 3.08597 9.74925C3.19836 9.86164 3.3368 9.91744 3.5013 9.91667H5.2513ZM8.4888 7.10208L8.06589 6.67917C7.94922 6.5625 7.81311 6.50669 7.65755 6.51175C7.502 6.51681 7.36589 6.57747 7.24922 6.69375C7.14227 6.81042 7.08627 6.94653 7.08122 7.10208C7.07616 7.25764 7.13216 7.39375 7.24922 7.51042L8.08047 8.34167C8.19714 8.45833 8.33325 8.51667 8.4888 8.51667C8.64436 8.51667 8.78047 8.45833 8.89714 8.34167L10.968 6.27083C11.0846 6.15417 11.143 6.01806 11.143 5.8625C11.143 5.70694 11.0846 5.57083 10.968 5.45417C10.8513 5.3375 10.7129 5.27917 10.5526 5.27917C10.3924 5.27917 10.2538 5.3375 10.1367 5.45417L8.4888 7.10208ZM5.2513 7.58333C5.41658 7.58333 5.55522 7.52733 5.66722 7.41533C5.77922 7.30333 5.83502 7.16489 5.83464 7C5.83425 6.83511 5.77825 6.69667 5.66664 6.58467C5.55502 6.47267 5.41658 6.41667 5.2513 6.41667H3.5013C3.33602 6.41667 3.19758 6.47267 3.08597 6.58467C2.97436 6.69667 2.91836 6.83511 2.91797 7C2.91758 7.16489 2.97358 7.30353 3.08597 7.41592C3.19836 7.52831 3.3368 7.58411 3.5013 7.58333H5.2513ZM5.2513 5.25C5.41658 5.25 5.55522 5.194 5.66722 5.082C5.77922 4.97 5.83502 4.83156 5.83464 4.66667C5.83425 4.50178 5.77825 4.36333 5.66664 4.25133C5.55502 4.13933 5.41658 4.08333 5.2513 4.08333H3.5013C3.33602 4.08333 3.19758 4.13933 3.08597 4.25133C2.97436 4.36333 2.91836 4.50178 2.91797 4.66667C2.91758 4.83156 2.97358 4.97019 3.08597 5.08258C3.19836 5.19497 3.3368 5.25078 3.5013 5.25H5.2513Z" fill="white"/>
</svg>
