<svg width="14" height="14" viewBox="0 0 14 14" fill="none" xmlns="http://www.w3.org/2000/svg">
<path d="M5.2513 4.08333H8.7513M5.2513 6.41667H8.7513M5.2513 8.75H7.58464M2.91797 2.91667C2.91797 2.60725 3.04089 2.3105 3.25968 2.09171C3.47847 1.87292 3.77522 1.75 4.08464 1.75H9.91797C10.2274 1.75 10.5241 1.87292 10.7429 2.09171C10.9617 2.3105 11.0846 2.60725 11.0846 2.91667V11.0833C11.0846 11.3928 10.9617 11.6895 10.7429 11.9083C10.5241 12.1271 10.2274 12.25 9.91797 12.25H4.08464C3.77522 12.25 3.47847 12.1271 3.25968 11.9083C3.04089 11.6895 2.91797 11.3928 2.91797 11.0833V2.91667Z" stroke="white" stroke-linecap="round" stroke-linejoin="round"/>
</svg>
