<svg width="15" height="14" viewBox="0 0 15 14" fill="none" xmlns="http://www.w3.org/2000/svg">
<path d="M5.2526 1.60413H3.79427C2.98886 1.60413 2.33594 2.25704 2.33594 3.06246V4.52079C2.33594 5.32621 2.98886 5.97913 3.79427 5.97913H5.2526C6.05802 5.97913 6.71094 5.32621 6.71094 4.52079V3.06246C6.71094 2.25704 6.05802 1.60413 5.2526 1.60413Z" stroke="white" stroke-linecap="round" stroke-linejoin="round"/>
<path d="M11.6706 1.60413H10.2122C9.40682 1.60413 8.75391 2.25704 8.75391 3.06246V4.52079C8.75391 5.32621 9.40682 5.97913 10.2122 5.97913H11.6706C12.476 5.97913 13.1289 5.32621 13.1289 4.52079V3.06246C13.1289 2.25704 12.476 1.60413 11.6706 1.60413Z" stroke="white" stroke-linecap="round" stroke-linejoin="round"/>
<path d="M5.2526 8.02075H3.79427C2.98886 8.02075 2.33594 8.67367 2.33594 9.47909V10.9374C2.33594 11.7428 2.98886 12.3958 3.79427 12.3958H5.2526C6.05802 12.3958 6.71094 11.7428 6.71094 10.9374V9.47909C6.71094 8.67367 6.05802 8.02075 5.2526 8.02075Z" stroke="white" stroke-linecap="round" stroke-linejoin="round"/>
<path d="M5.39844 3.79163C5.39844 3.30838 5.00669 2.91663 4.52344 2.91663C4.04019 2.91663 3.64844 3.30838 3.64844 3.79163C3.64844 4.27488 4.04019 4.66663 4.52344 4.66663C5.00669 4.66663 5.39844 4.27488 5.39844 3.79163Z" fill="white"/>
<path d="M11.8164 3.79163C11.8164 3.30838 11.4247 2.91663 10.9414 2.91663C10.4582 2.91663 10.0664 3.30838 10.0664 3.79163C10.0664 4.27488 10.4582 4.66663 10.9414 4.66663C11.4247 4.66663 11.8164 4.27488 11.8164 3.79163Z" fill="white"/>
<path d="M5.39844 10.2083C5.39844 9.725 5.00669 9.33325 4.52344 9.33325C4.04019 9.33325 3.64844 9.725 3.64844 10.2083C3.64844 10.6915 4.04019 11.0833 4.52344 11.0833C5.00669 11.0833 5.39844 10.6915 5.39844 10.2083Z" fill="white"/>
<path d="M10.0664 8.45825C10.0664 7.975 9.67466 7.58325 9.19141 7.58325C8.70816 7.58325 8.31641 7.975 8.31641 8.45825C8.31641 8.9415 8.70816 9.33325 9.19141 9.33325C9.67466 9.33325 10.0664 8.9415 10.0664 8.45825Z" fill="white"/>
<path d="M11.8164 10.2083C11.8164 9.725 11.4247 9.33325 10.9414 9.33325C10.4582 9.33325 10.0664 9.725 10.0664 10.2083C10.0664 10.6915 10.4582 11.0833 10.9414 11.0833C11.4247 11.0833 11.8164 10.6915 11.8164 10.2083Z" fill="white"/>
<path d="M13.5664 11.9583C13.5664 11.475 13.1747 11.0833 12.6914 11.0833C12.2082 11.0833 11.8164 11.475 11.8164 11.9583C11.8164 12.4415 12.2082 12.8333 12.6914 12.8333C13.1747 12.8333 13.5664 12.4415 13.5664 11.9583Z" fill="white"/>
<path d="M13.5664 8.45825C13.5664 7.975 13.1747 7.58325 12.6914 7.58325C12.2082 7.58325 11.8164 7.975 11.8164 8.45825C11.8164 8.9415 12.2082 9.33325 12.6914 9.33325C13.1747 9.33325 13.5664 8.9415 13.5664 8.45825Z" fill="white"/>
<path d="M10.0664 11.9583C10.0664 11.475 9.67466 11.0833 9.19141 11.0833C8.70816 11.0833 8.31641 11.475 8.31641 11.9583C8.31641 12.4415 8.70816 12.8333 9.19141 12.8333C9.67466 12.8333 10.0664 12.4415 10.0664 11.9583Z" fill="white"/>
</svg>
