<svg width="14" height="14" viewBox="0 0 14 14" fill="none" xmlns="http://www.w3.org/2000/svg">
<path d="M8.7487 9.91667V10.5C8.7487 10.9641 8.56432 11.4092 8.23613 11.7374C7.90795 12.0656 7.46283 12.25 6.9987 12.25C6.53457 12.25 6.08945 12.0656 5.76126 11.7374C5.43307 11.4092 5.2487 10.9641 5.2487 10.5V9.91667M8.7487 9.91667H5.2487M8.7487 9.91667H10.8429C11.0663 9.91667 11.1783 9.91667 11.2687 9.88633C11.3537 9.85754 11.431 9.8095 11.4944 9.74596C11.5579 9.68242 11.6058 9.60509 11.6344 9.52C11.6654 9.429 11.6654 9.317 11.6654 9.09183C11.6654 8.99325 11.6654 8.94425 11.6572 8.897C11.6428 8.80867 11.6083 8.72484 11.5563 8.652C11.5283 8.61292 11.4933 8.57792 11.4239 8.5085L11.1964 8.281C11.1601 8.24468 11.1313 8.20157 11.1117 8.15412C11.0921 8.10668 11.082 8.05584 11.082 8.0045V5.83333C11.082 5.2971 10.9764 4.76612 10.7712 4.27071C10.566 3.7753 10.2652 3.32515 9.88605 2.94598C9.50688 2.56681 9.05673 2.26603 8.56132 2.06083C8.06591 1.85562 7.53493 1.75 6.9987 1.75C6.46247 1.75 5.93149 1.85562 5.43607 2.06083C4.94066 2.26603 4.49052 2.56681 4.11135 2.94598C3.73217 3.32515 3.4314 3.7753 3.22619 4.27071C3.02098 4.76612 2.91536 5.2971 2.91536 5.83333V8.0045C2.9154 8.05584 2.90532 8.10668 2.8857 8.15412C2.86609 8.20157 2.83731 8.24468 2.80103 8.281L2.57353 8.5085C2.50353 8.5785 2.46911 8.61292 2.4417 8.65142C2.38921 8.72433 2.35428 8.80837 2.33961 8.897C2.33203 8.94367 2.33203 8.99325 2.33203 9.09183C2.33203 9.317 2.33203 9.429 2.36236 9.52C2.39114 9.60522 2.43923 9.68262 2.50289 9.74617C2.56654 9.80972 2.64402 9.85769 2.72928 9.88633C2.8197 9.91667 2.93111 9.91667 3.15453 9.91667H5.2487" stroke="white" stroke-linecap="round" stroke-linejoin="round"/>
</svg>
