<svg width="14" height="14" viewBox="0 0 14 14" fill="none" xmlns="http://www.w3.org/2000/svg">
<path d="M3.4987 12.8334C3.17787 12.8334 2.90331 12.7193 2.67503 12.491C2.44676 12.2627 2.33242 11.988 2.33203 11.6667V10.5001C2.33203 10.3348 2.38803 10.1964 2.50003 10.0847C2.61203 9.97314 2.75048 9.91714 2.91537 9.91675C3.08026 9.91636 3.21889 9.97236 3.33128 10.0847C3.44367 10.1971 3.49948 10.3356 3.4987 10.5001V11.6667H10.4987V10.5001C10.4987 10.3348 10.5547 10.1964 10.6667 10.0847C10.7787 9.97314 10.9171 9.91714 11.082 9.91675C11.2469 9.91636 11.3856 9.97236 11.4979 10.0847C11.6103 10.1971 11.6661 10.3356 11.6654 10.5001V11.6667C11.6654 11.9876 11.5512 12.2623 11.3229 12.491C11.0947 12.7197 10.8199 12.8338 10.4987 12.8334H3.4987ZM2.33203 2.33341C2.33203 2.01258 2.44637 1.73803 2.67503 1.50975C2.9037 1.28147 3.17826 1.16714 3.4987 1.16675H7.68412C7.83967 1.16675 7.98803 1.19591 8.1292 1.25425C8.27037 1.31258 8.39423 1.39522 8.50078 1.50216L11.3299 4.33133C11.4369 4.43828 11.5195 4.56233 11.5779 4.7035C11.6362 4.84466 11.6654 4.99283 11.6654 5.148V5.83341C11.6654 5.99869 11.6094 6.13733 11.4974 6.24933C11.3854 6.36133 11.2469 6.41714 11.082 6.41675C10.9171 6.41636 10.7787 6.36036 10.6667 6.24875C10.5547 6.13714 10.4987 5.99869 10.4987 5.83341V5.25008H8.16537C8.00009 5.25008 7.86164 5.19408 7.75003 5.08208C7.63842 4.97008 7.58242 4.83164 7.58203 4.66675V2.33341H3.4987V5.83341C3.4987 5.99869 3.4427 6.13733 3.3307 6.24933C3.2187 6.36133 3.08026 6.41714 2.91537 6.41675C2.75048 6.41636 2.61203 6.36036 2.50003 6.24875C2.38803 6.13714 2.33203 5.99869 2.33203 5.83341V2.33341ZM12.832 8.75008H1.16537C1.00009 8.75008 0.861644 8.69408 0.750033 8.58208C0.638422 8.47008 0.582422 8.33164 0.582033 8.16675C0.581644 8.00186 0.637644 7.86341 0.750033 7.75141C0.862422 7.63941 1.00087 7.58341 1.16537 7.58341H12.832C12.9973 7.58341 13.1359 7.63941 13.2479 7.75141C13.3599 7.86341 13.4158 8.00186 13.4154 8.16675C13.415 8.33164 13.359 8.47028 13.2474 8.58266C13.1358 8.69505 12.9973 8.75086 12.832 8.75008Z" fill="white"/>
</svg>
