<svg width="15" height="14" viewBox="0 0 15 14" fill="none" xmlns="http://www.w3.org/2000/svg">
<path d="M6.27344 9.33333C6.57385 7.847 6.61469 6.98017 6.42277 6.44583C6.37629 6.3315 6.31427 6.22413 6.23844 6.12675C5.76419 5.467 5.54894 4.95133 5.46669 4.63225C5.42068 4.44439 5.40241 4.25081 5.41244 4.05767C5.44231 3.55417 5.61535 3.06967 5.91119 2.66117C6.40702 1.967 7.33102 1.75408 7.73177 1.75C8.1331 1.75408 9.08102 1.96758 9.57685 2.66117C9.8727 3.06967 10.0457 3.55417 10.0756 4.05767C10.0838 4.25017 10.0692 4.44558 10.0214 4.63225C9.93969 4.95133 9.72385 5.46642 9.2496 6.12675C9.17378 6.22413 9.11175 6.3315 9.06527 6.44583C8.87394 6.98017 8.89027 7.847 9.1901 9.33333M8.89844 7.58333H6.5651M11.0375 12.25H4.42602C4.24519 12.25 4.15477 12.25 4.08069 12.2249C3.87944 12.1578 3.72252 11.9612 3.66827 11.7092C3.64844 11.6171 3.64844 11.5045 3.64844 11.2782C3.64844 10.8261 3.64844 10.6003 3.6881 10.4148C3.79602 9.91142 4.11044 9.51825 4.51294 9.3835C4.66169 9.33333 4.84252 9.33333 5.20419 9.33333H10.2594C10.621 9.33333 10.8019 9.33333 10.9506 9.38292C11.3531 9.51767 11.6675 9.91083 11.7754 10.4143C11.8151 10.5998 11.8151 10.8255 11.8151 11.2776C11.8151 11.5039 11.8151 11.6171 11.7953 11.7092C11.741 11.9612 11.5841 12.1578 11.3829 12.2249C11.3088 12.25 11.2184 12.25 11.0375 12.25Z" stroke="white" stroke-linecap="round" stroke-linejoin="round"/>
</svg>
