<svg width="41" height="41" viewBox="0 0 41 41" fill="none" xmlns="http://www.w3.org/2000/svg">
<rect x="0.189941" y="0.102295" width="40" height="40" rx="20" fill="#3A3A3C"/>
<g clip-path="url(#clip0_29_305)">
<path fill-rule="evenodd" clip-rule="evenodd" d="M29.0045 17.8156C29.0045 12.7231 25.0504 8.76904 20.1896 8.76904C15.3289 8.76904 11.3748 12.7231 11.3748 17.5839C9.91032 18.3356 8.85632 19.7196 8.85632 21.3616V23.8802C8.85632 24.8821 9.25433 25.843 9.9628 26.5514C10.6713 27.2599 11.6322 27.6579 12.6341 27.6579H13.8934C14.2273 27.6579 14.5476 27.5253 14.7838 27.2891C15.0199 27.0529 15.1526 26.7326 15.1526 26.3987V18.8431C15.1526 18.5091 15.0199 18.1888 14.7838 17.9527C14.5476 17.7165 14.2273 17.5839 13.8934 17.5839C13.8934 15.914 14.5567 14.3125 15.7375 13.1317C16.9183 11.9509 18.5198 11.2876 20.1896 11.2876C21.8595 11.2876 23.461 11.9509 24.6418 13.1317C25.8226 14.3125 26.4859 15.914 26.4859 17.5839C26.152 17.5839 25.8317 17.7165 25.5955 17.9527C25.3594 18.1888 25.2267 18.5091 25.2267 18.8431V26.3987C25.2267 26.7326 25.3594 27.0529 25.5955 27.2891C25.8317 27.5253 26.152 27.6579 26.4859 27.6579V28.9172H23.2219C22.9625 28.1856 22.2699 27.6579 21.4489 27.6579H18.9304C18.4294 27.6579 17.949 27.8569 17.5947 28.2112C17.2405 28.5654 17.0415 29.0459 17.0415 29.5468C17.0415 30.0478 17.2405 30.5282 17.5947 30.8825C17.949 31.2367 18.4294 31.4357 18.9304 31.4357H26.4859C27.1539 31.4357 27.7945 31.1704 28.2668 30.6981C28.7391 30.2257 29.0045 29.5851 29.0045 28.9172V27.4275C29.7395 27.1692 30.3764 26.6893 30.8274 26.054C31.2785 25.4188 31.5215 24.6593 31.523 23.8802V21.3616C31.5216 20.5826 31.2786 19.8233 30.8275 19.1882C30.3765 18.5531 29.7395 18.0735 29.0045 17.8156L0.0415039 86.8431L29.0045 17.8156Z" fill="white"/>
</g>
<defs>
<clipPath id="clip0_29_305">
<rect width="22.6667" height="22.6667" fill="white" transform="translate(8.85693 8.76904)"/>
</clipPath>
</defs>
</svg>
