<svg width="41" height="41" viewBox="0 0 41 41" fill="none" xmlns="http://www.w3.org/2000/svg">
<rect x="0.868652" y="0.102295" width="40" height="40" rx="20" fill="#948FFF"/>
<g clip-path="url(#clip0_29_320)">
<path fill-rule="evenodd" clip-rule="evenodd" d="M22.1187 23.2273H23.9937V14.4773H22.1187V23.2273ZM29.6187 10.7273L25.2437 13.6442V24.0604L29.6187 26.9773C30.3087 26.9773 30.8687 26.4173 30.8687 25.7273V11.9773C30.8687 11.2873 30.3087 10.7273 29.6187 10.7273ZM10.8687 18.8523C10.8687 21.1854 12.4693 22.6948 14.6305 23.1085L14.6187 23.2273V28.2273C14.6187 28.9173 15.1787 29.4773 15.8687 29.4773H17.7437C18.4337 29.4773 18.9937 28.9173 18.9937 28.2273V23.2273H20.8687V14.4773H15.8687C13.1074 14.4773 10.8687 16.091 10.8687 18.8523Z" fill="white"/>
</g>
<defs>
<clipPath id="clip0_29_320">
<rect width="20" height="20" fill="white" transform="translate(10.8687 10.1023)"/>
</clipPath>
</defs>
</svg>
