<svg width="41" height="41" viewBox="0 0 41 41" fill="none" xmlns="http://www.w3.org/2000/svg">
<rect x="0.189941" y="0.102295" width="40" height="40" rx="20" fill="#FF77B8"/>
<g clip-path="url(#clip0_29_349)">
<path d="M28.7124 11.6855H12.1846C11.9268 11.6855 11.6795 11.788 11.4972 11.9703C11.3148 12.1526 11.2124 12.3999 11.2124 12.6578V24.3244C11.2124 24.5823 11.3148 24.8296 11.4972 25.0119C11.6795 25.1942 11.9268 25.2967 12.1846 25.2967H28.7124C28.9703 25.2967 29.2175 25.1942 29.3999 25.0119C29.5822 24.8296 29.6846 24.5823 29.6846 24.3244V12.6578C29.6846 12.3999 29.5822 12.1526 29.3999 11.9703C29.2175 11.788 28.9703 11.6855 28.7124 11.6855ZM19.1846 20.7272C19.2903 20.8208 19.3731 20.9373 19.4268 21.0678C19.4804 21.1983 19.5034 21.3394 19.494 21.4802C19.4846 21.6211 19.4431 21.7579 19.3726 21.8801C19.3021 22.0024 19.2046 22.1069 19.0874 22.1855C18.8905 22.3309 18.6459 22.3967 18.4026 22.3697C18.1593 22.3426 17.9351 22.2248 17.7749 22.0397L14.9068 19.1717C14.8125 19.0851 14.7373 18.98 14.6858 18.8628C14.6343 18.7457 14.6077 18.6191 14.6077 18.4911C14.6077 18.3631 14.6343 18.2365 14.6858 18.1194C14.7373 18.0022 14.8125 17.8971 14.9068 17.8105L17.7749 14.8939C17.9498 14.7334 18.1713 14.6327 18.4073 14.6065C18.6433 14.5803 18.8815 14.6298 19.0874 14.748C19.2054 14.8318 19.3032 14.9408 19.3738 15.0671C19.4443 15.1935 19.4857 15.334 19.495 15.4784C19.5043 15.6227 19.4813 15.7674 19.4276 15.9018C19.3739 16.0361 19.2909 16.1568 19.1846 16.255L16.9485 18.4911L19.1846 20.7272ZM25.9902 19.1717L23.1221 22.0397C22.9619 22.2248 22.7377 22.3426 22.4944 22.3697C22.2511 22.3967 22.0066 22.3309 21.8096 22.1855C21.6925 22.1069 21.5949 22.0024 21.5244 21.8801C21.4539 21.7579 21.4124 21.6211 21.403 21.4802C21.3936 21.3394 21.4166 21.1983 21.4703 21.0678C21.5239 20.9373 21.6067 20.8208 21.7124 20.7272L23.9485 18.4911L21.7124 16.255C21.6061 16.1568 21.5231 16.0361 21.4694 15.9018C21.4157 15.7674 21.3927 15.6227 21.402 15.4784C21.4113 15.334 21.4528 15.1935 21.5233 15.0671C21.5938 14.9408 21.6916 14.8318 21.8096 14.748C22.0155 14.6298 22.2537 14.5803 22.4897 14.6065C22.7257 14.6327 22.9472 14.7334 23.1221 14.8939L25.9902 17.8105C26.0845 17.8971 26.1598 18.0022 26.2113 18.1194C26.2628 18.2365 26.2894 18.3631 26.2894 18.4911C26.2894 18.6191 26.2628 18.7457 26.2113 18.8628C26.1598 18.98 26.0845 19.0851 25.9902 19.1717Z" fill="white"/>
<path d="M30.1711 27.2412H10.7266C10.4688 27.2412 10.2215 27.3436 10.0392 27.526C9.85682 27.7083 9.75439 27.9556 9.75439 28.2134C9.75439 28.4713 9.85682 28.7186 10.0392 28.9009C10.2215 29.0832 10.4688 29.1857 10.7266 29.1857H30.1711C30.4289 29.1857 30.6762 29.0832 30.8585 28.9009C31.0409 28.7186 31.1433 28.4713 31.1433 28.2134C31.1433 27.9556 31.0409 27.7083 30.8585 27.526C30.6762 27.3436 30.4289 27.2412 30.1711 27.2412Z" fill="white"/>
</g>
<defs>
<clipPath id="clip0_29_349">
<rect width="23.3333" height="23.3333" fill="white" transform="translate(8.78271 8.76904)"/>
</clipPath>
</defs>
</svg>
